<svg width="500" height="250" viewBox="0 0 500 250" fill="none" xmlns="http://www.w3.org/2000/svg">
<rect width="500" height="250" fill="white"/>
<path d="M27.296 159V88.92H49.472C54.144 88.92 58.176 89.784 61.568 91.512C65.024 93.24 67.712 95.672 69.632 98.808C71.552 101.88 72.512 105.528 72.512 109.752C72.512 114.36 71.328 118.424 68.96 121.944C66.656 125.464 63.52 127.96 59.552 129.432L73.472 159H60.032L47.84 131.16H39.296V159H27.296ZM39.296 120.6H49.472C52.864 120.6 55.52 119.672 57.44 117.816C59.36 115.96 60.32 113.4 60.32 110.136C60.32 106.808 59.36 104.216 57.44 102.36C55.52 100.44 52.864 99.48 49.472 99.48H39.296V120.6ZM106.459 159.96C101.979 159.96 98.0745 159.096 94.7465 157.368C91.4185 155.64 88.8265 153.24 86.9705 150.168C85.1785 147.032 84.2825 143.384 84.2825 139.224V125.976C84.2825 121.816 85.1785 118.2 86.9705 115.128C88.8265 111.992 91.4185 109.56 94.7465 107.832C98.0745 106.104 101.979 105.24 106.459 105.24C110.875 105.24 114.715 106.104 117.979 107.832C121.307 109.56 123.867 111.992 125.659 115.128C127.515 118.2 128.443 121.816 128.443 125.976V135.48H95.8985V139.224C95.8985 142.936 96.7945 145.752 98.5865 147.672C100.379 149.528 103.035 150.456 106.555 150.456C109.243 150.456 111.419 150.008 113.083 149.112C114.747 148.152 115.803 146.776 116.251 144.984H128.059C127.163 149.528 124.731 153.176 120.763 155.928C116.859 158.616 112.091 159.96 106.459 159.96ZM116.827 128.76V125.88C116.827 122.232 115.963 119.448 114.235 117.528C112.507 115.544 109.915 114.552 106.459 114.552C103.003 114.552 100.379 115.544 98.5865 117.528C96.7945 119.512 95.8985 122.328 95.8985 125.976V127.992L117.691 127.8L116.827 128.76ZM164.213 159.96C159.733 159.96 155.797 159.128 152.405 157.464C149.077 155.736 146.485 153.336 144.629 150.264C142.773 147.128 141.845 143.448 141.845 139.224V125.976C141.845 121.688 142.773 118.008 144.629 114.936C146.485 111.864 149.077 109.496 152.405 107.832C155.797 106.104 159.733 105.24 164.213 105.24C170.869 105.24 176.181 106.968 180.149 110.424C184.117 113.816 186.197 118.456 186.389 124.344H174.389C174.197 121.592 173.205 119.48 171.413 118.008C169.685 116.472 167.285 115.704 164.213 115.704C161.013 115.704 158.485 116.6 156.629 118.392C154.773 120.12 153.845 122.616 153.845 125.88V139.224C153.845 142.488 154.773 145.016 156.629 146.808C158.485 148.6 161.013 149.496 164.213 149.496C167.285 149.496 169.685 148.76 171.413 147.288C173.205 145.752 174.197 143.608 174.389 140.856H186.389C186.197 146.744 184.117 151.416 180.149 154.872C176.181 158.264 170.869 159.96 164.213 159.96ZM199.984 159V148.056H218.416V117.048H202.384V106.2H229.936V148.056H246.256V159H199.984ZM223.216 97.368C220.784 97.368 218.864 96.76 217.456 95.544C216.048 94.264 215.344 92.568 215.344 90.456C215.344 88.344 216.048 86.68 217.456 85.464C218.864 84.184 220.784 83.544 223.216 83.544C225.648 83.544 227.568 84.184 228.976 85.464C230.384 86.68 231.088 88.344 231.088 90.456C231.088 92.568 230.384 94.264 228.976 95.544C227.568 96.76 225.648 97.368 223.216 97.368ZM257.93 159V88.92H301.514V100.056H269.738V118.776H299.018V129.912H269.93V159H257.93ZM336.613 159.864C332.133 159.864 328.229 159.032 324.901 157.368C321.637 155.64 319.077 153.24 317.221 150.168C315.429 147.032 314.533 143.352 314.533 139.128V126.072C314.533 121.848 315.429 118.2 317.221 115.128C319.077 111.992 321.637 109.592 324.901 107.928C328.229 106.2 332.133 105.336 336.613 105.336C341.157 105.336 345.061 106.2 348.325 107.928C351.589 109.592 354.117 111.992 355.909 115.128C357.765 118.2 358.693 121.816 358.693 125.976V139.128C358.693 143.352 357.765 147.032 355.909 150.168C354.117 153.24 351.589 155.64 348.325 157.368C345.061 159.032 341.157 159.864 336.613 159.864ZM336.613 149.4C339.813 149.4 342.277 148.536 344.005 146.808C345.797 145.016 346.693 142.456 346.693 139.128V126.072C346.693 122.68 345.797 120.12 344.005 118.392C342.277 116.664 339.813 115.8 336.613 115.8C333.477 115.8 331.013 116.664 329.221 118.392C327.429 120.12 326.533 122.68 326.533 126.072V139.128C326.533 142.456 327.429 145.016 329.221 146.808C331.013 148.536 333.477 149.4 336.613 149.4ZM394.175 159.864C389.695 159.864 385.791 159.032 382.463 157.368C379.199 155.64 376.639 153.24 374.783 150.168C372.991 147.032 372.095 143.352 372.095 139.128V126.072C372.095 121.848 372.991 118.2 374.783 115.128C376.639 111.992 379.199 109.592 382.463 107.928C385.791 106.2 389.695 105.336 394.175 105.336C398.719 105.336 402.623 106.2 405.887 107.928C409.151 109.592 411.679 111.992 413.471 115.128C415.327 118.2 416.255 121.816 416.255 125.976V139.128C416.255 143.352 415.327 147.032 413.471 150.168C411.679 153.24 409.151 155.64 405.887 157.368C402.623 159.032 398.719 159.864 394.175 159.864ZM394.175 149.4C397.375 149.4 399.839 148.536 401.567 146.808C403.359 145.016 404.255 142.456 404.255 139.128V126.072C404.255 122.68 403.359 120.12 401.567 118.392C399.839 116.664 397.375 115.8 394.175 115.8C391.039 115.8 388.575 116.664 386.783 118.392C384.991 120.12 384.095 122.68 384.095 126.072V139.128C384.095 142.456 384.991 145.016 386.783 146.808C388.575 148.536 391.039 149.4 394.175 149.4ZM447.226 159.96C441.978 159.96 437.722 158.136 434.458 154.488C431.258 150.84 429.658 145.944 429.658 139.8V125.496C429.658 119.288 431.258 114.36 434.458 110.712C437.658 107.064 441.914 105.24 447.226 105.24C451.578 105.24 455.034 106.488 457.594 108.984C460.154 111.416 461.434 114.776 461.434 119.064L458.746 116.28H461.53L461.146 103.704V88.92H473.146V159H461.434V148.92H458.746L461.434 146.136C461.434 150.424 460.154 153.816 457.594 156.312C455.034 158.744 451.578 159.96 447.226 159.96ZM451.45 149.592C454.522 149.592 456.89 148.696 458.554 146.904C460.282 145.048 461.146 142.488 461.146 139.224V125.976C461.146 122.712 460.282 120.184 458.554 118.392C456.89 116.536 454.522 115.608 451.45 115.608C448.378 115.608 445.978 116.504 444.25 118.296C442.522 120.088 441.658 122.648 441.658 125.976V139.224C441.658 142.552 442.522 145.112 444.25 146.904C445.978 148.696 448.378 149.592 451.45 149.592Z" fill="#915EFF"/>
</svg>
