<svg width="446" height="250" viewBox="0 0 446 250" fill="none" xmlns="http://www.w3.org/2000/svg">
<g clip-path="url(#clip0_73_125)">
<path d="M0.296 159V88.92H22.472C27.144 88.92 31.176 89.784 34.568 91.512C38.024 93.24 40.712 95.672 42.632 98.808C44.552 101.88 45.512 105.528 45.512 109.752C45.512 114.36 44.328 118.424 41.96 121.944C39.656 125.464 36.52 127.96 32.552 129.432L46.472 159H33.032L20.84 131.16H12.296V159H0.296ZM12.296 120.6H22.472C25.864 120.6 28.52 119.672 30.44 117.816C32.36 115.96 33.32 113.4 33.32 110.136C33.32 106.808 32.36 104.216 30.44 102.36C28.52 100.44 25.864 99.48 22.472 99.48H12.296V120.6ZM79.4585 159.96C74.9785 159.96 71.0745 159.096 67.7465 157.368C64.4185 155.64 61.8265 153.24 59.9705 150.168C58.1785 147.032 57.2825 143.384 57.2825 139.224V125.976C57.2825 121.816 58.1785 118.2 59.9705 115.128C61.8265 111.992 64.4185 109.56 67.7465 107.832C71.0745 106.104 74.9785 105.24 79.4585 105.24C83.8745 105.24 87.7145 106.104 90.9785 107.832C94.3065 109.56 96.8665 111.992 98.6585 115.128C100.515 118.2 101.443 121.816 101.443 125.976V135.48H68.8985V139.224C68.8985 142.936 69.7945 145.752 71.5865 147.672C73.3785 149.528 76.0345 150.456 79.5545 150.456C82.2425 150.456 84.4185 150.008 86.0825 149.112C87.7465 148.152 88.8025 146.776 89.2505 144.984H101.059C100.163 149.528 97.7305 153.176 93.7625 155.928C89.8585 158.616 85.0905 159.96 79.4585 159.96ZM89.8265 128.76V125.88C89.8265 122.232 88.9625 119.448 87.2345 117.528C85.5065 115.544 82.9145 114.552 79.4585 114.552C76.0025 114.552 73.3785 115.544 71.5865 117.528C69.7945 119.512 68.8985 122.328 68.8985 125.976V127.992L90.6905 127.8L89.8265 128.76ZM137.213 159.96C132.733 159.96 128.797 159.128 125.405 157.464C122.077 155.736 119.485 153.336 117.629 150.264C115.773 147.128 114.845 143.448 114.845 139.224V125.976C114.845 121.688 115.773 118.008 117.629 114.936C119.485 111.864 122.077 109.496 125.405 107.832C128.797 106.104 132.733 105.24 137.213 105.24C143.869 105.24 149.181 106.968 153.149 110.424C157.117 113.816 159.197 118.456 159.389 124.344H147.389C147.197 121.592 146.205 119.48 144.413 118.008C142.685 116.472 140.285 115.704 137.213 115.704C134.013 115.704 131.485 116.6 129.629 118.392C127.773 120.12 126.845 122.616 126.845 125.88V139.224C126.845 142.488 127.773 145.016 129.629 146.808C131.485 148.6 134.013 149.496 137.213 149.496C140.285 149.496 142.685 148.76 144.413 147.288C146.205 145.752 147.197 143.608 147.389 140.856H159.389C159.197 146.744 157.117 151.416 153.149 154.872C149.181 158.264 143.869 159.96 137.213 159.96ZM172.984 159V148.056H191.416V117.048H175.384V106.2H202.936V148.056H219.256V159H172.984ZM196.216 97.368C193.784 97.368 191.864 96.76 190.456 95.544C189.048 94.264 188.344 92.568 188.344 90.456C188.344 88.344 189.048 86.68 190.456 85.464C191.864 84.184 193.784 83.544 196.216 83.544C198.648 83.544 200.568 84.184 201.976 85.464C203.384 86.68 204.088 88.344 204.088 90.456C204.088 92.568 203.384 94.264 201.976 95.544C200.568 96.76 198.648 97.368 196.216 97.368ZM230.93 159V88.92H274.514V100.056H242.738V118.776H272.018V129.912H242.93V159H230.93ZM309.613 159.864C305.133 159.864 301.229 159.032 297.901 157.368C294.637 155.64 292.077 153.24 290.221 150.168C288.429 147.032 287.533 143.352 287.533 139.128V126.072C287.533 121.848 288.429 118.2 290.221 115.128C292.077 111.992 294.637 109.592 297.901 107.928C301.229 106.2 305.133 105.336 309.613 105.336C314.157 105.336 318.061 106.2 321.325 107.928C324.589 109.592 327.117 111.992 328.909 115.128C330.765 118.2 331.693 121.816 331.693 125.976V139.128C331.693 143.352 330.765 147.032 328.909 150.168C327.117 153.24 324.589 155.64 321.325 157.368C318.061 159.032 314.157 159.864 309.613 159.864ZM309.613 149.4C312.813 149.4 315.277 148.536 317.005 146.808C318.797 145.016 319.693 142.456 319.693 139.128V126.072C319.693 122.68 318.797 120.12 317.005 118.392C315.277 116.664 312.813 115.8 309.613 115.8C306.477 115.8 304.013 116.664 302.221 118.392C300.429 120.12 299.533 122.68 299.533 126.072V139.128C299.533 142.456 300.429 145.016 302.221 146.808C304.013 148.536 306.477 149.4 309.613 149.4ZM367.175 159.864C362.695 159.864 358.791 159.032 355.463 157.368C352.199 155.64 349.639 153.24 347.783 150.168C345.991 147.032 345.095 143.352 345.095 139.128V126.072C345.095 121.848 345.991 118.2 347.783 115.128C349.639 111.992 352.199 109.592 355.463 107.928C358.791 106.2 362.695 105.336 367.175 105.336C371.719 105.336 375.623 106.2 378.887 107.928C382.151 109.592 384.679 111.992 386.471 115.128C388.327 118.2 389.255 121.816 389.255 125.976V139.128C389.255 143.352 388.327 147.032 386.471 150.168C384.679 153.24 382.151 155.64 378.887 157.368C375.623 159.032 371.719 159.864 367.175 159.864ZM367.175 149.4C370.375 149.4 372.839 148.536 374.567 146.808C376.359 145.016 377.255 142.456 377.255 139.128V126.072C377.255 122.68 376.359 120.12 374.567 118.392C372.839 116.664 370.375 115.8 367.175 115.8C364.039 115.8 361.575 116.664 359.783 118.392C357.991 120.12 357.095 122.68 357.095 126.072V139.128C357.095 142.456 357.991 145.016 359.783 146.808C361.575 148.536 364.039 149.4 367.175 149.4ZM420.226 159.96C414.978 159.96 410.722 158.136 407.458 154.488C404.258 150.84 402.658 145.944 402.658 139.8V125.496C402.658 119.288 404.258 114.36 407.458 110.712C410.658 107.064 414.914 105.24 420.226 105.24C424.578 105.24 428.034 106.488 430.594 108.984C433.154 111.416 434.434 114.776 434.434 119.064L431.746 116.28H434.53L434.146 103.704V88.92H446.146V159H434.434V148.92H431.746L434.434 146.136C434.434 150.424 433.154 153.816 430.594 156.312C428.034 158.744 424.578 159.96 420.226 159.96ZM424.45 149.592C427.522 149.592 429.89 148.696 431.554 146.904C433.282 145.048 434.146 142.488 434.146 139.224V125.976C434.146 122.712 433.282 120.184 431.554 118.392C429.89 116.536 427.522 115.608 424.45 115.608C421.378 115.608 418.978 116.504 417.25 118.296C415.522 120.088 414.658 122.648 414.658 125.976V139.224C414.658 142.552 415.522 145.112 417.25 146.904C418.978 148.696 421.378 149.592 424.45 149.592Z" fill="#915EFF"/>
</g>
<defs>
<clipPath id="clip0_73_125">
<rect width="446" height="250" fill="white"/>
</clipPath>
</defs>
</svg>
